<?xml version="1.0"?>
<svg xmlns="http://www.w3.org/2000/svg" xmlns:xlink="http://www.w3.org/1999/xlink" xmlns:svgjs="http://svgjs.com/svgjs" version="1.1" width="512" height="512" x="0" y="0" viewBox="0 0 512.001 512.001" style="enable-background:new 0 0 512 512" xml:space="preserve" class=""><g>
<g xmlns="http://www.w3.org/2000/svg">
	<path style="" d="M281.043,135.382c0,13.852-11.229,25.083-25.08,25.083c-13.855,0-25.083-11.23-25.083-25.083   c0-13.852,11.229-25.083,25.083-25.083C269.814,110.3,281.043,121.53,281.043,135.382L281.043,135.382z M255.963,9.979   c-11.092,0-21.846,1.447-32.089,4.15v30.472c-11.264,3.982-21.567,9.998-30.464,17.612l-26.411-15.248   c-7.463,7.518-14.092,16.108-19.638,25.715c-5.547,9.605-9.67,19.64-12.45,29.864l26.397,15.24   c-1.054,5.705-1.611,11.584-1.611,17.597c0,6.012,0.558,11.89,1.611,17.595l-26.398,15.242   c2.781,10.221,6.904,20.258,12.452,29.864c1.375,2.38,2.815,4.697,4.316,6.952c4.563,6.844,9.707,13.107,15.321,18.763   l26.411-15.248c8.896,7.613,19.2,13.629,30.464,17.612v30.472c10.243,2.704,20.997,4.15,32.089,4.15s21.846-1.446,32.089-4.15   v-30.472c11.264-3.982,21.565-10,30.462-17.612l26.411,15.248c5.615-5.656,10.756-11.918,15.32-18.763   c1.504-2.254,2.944-4.572,4.317-6.952c5.546-9.605,9.672-19.643,12.452-29.864l-26.397-15.242   c1.054-5.705,1.609-11.582,1.609-17.595s-0.556-11.89-1.609-17.595l26.397-15.241c-2.779-10.224-6.905-20.259-12.452-29.864   c-5.544-9.607-12.172-18.198-19.638-25.715l-26.41,15.248c-8.895-7.615-19.198-13.63-30.464-17.612V14.131   C277.808,11.426,267.055,9.979,255.963,9.979z" fill="#3f58df" data-original="#fc4f5c" class=""/>
	<path style="" d="M223.873,256.634v-30.472c-11.264-3.983-21.567-9.998-30.464-17.612l-26.411,15.248   c-5.613-5.656-10.757-11.918-15.321-18.763c-14.673,16.141-26.164,36.315-33.263,60.083c-8.834,29.566,2.629,82.803,7.794,110.308   h35.313c0-22.47,18.218-40.688,40.687-40.688c7.972,0,15.408,2.293,21.685,6.254c35.046-15.149,72.875-35.419,101.318-60.842   c0,0,26.326,39.801,67.917,53.788c3.636-24.305,5.733-50.907,0.381-68.82c-7.099-23.768-18.591-43.943-33.262-60.083   c-4.566,6.844-9.706,13.107-15.322,18.763l-26.411-15.248c-8.897,7.611-19.198,13.63-30.462,17.612v30.472   c-10.243,2.704-20.997,4.15-32.089,4.15C244.87,260.784,234.117,259.338,223.873,256.634z" fill="#8e6a5c" data-original="#8e6a5c"/>
	<path style="" d="M325.211,280.149c-28.443,25.422-66.273,45.693-101.318,60.842   c11.418,7.204,19.006,19.936,19.006,34.433h26.128c0-22.47,18.216-40.688,40.688-40.688c22.47,0,40.687,18.218,40.687,40.688   h35.312c2.037-10.84,5.052-25.678,7.414-41.488C351.538,319.95,325.211,280.149,325.211,280.149z" fill="#fcc8a4" data-original="#fcc8a4"/>
	<g>
		<circle style="" cx="309.714" cy="375.425" r="40.688" fill="#a6d3ff" data-original="#a6d3ff" class=""/>
		<path style="" d="M242.899,375.425c0-14.499-7.587-27.227-19.006-34.433c-6.276-3.961-13.713-6.254-21.685-6.254    c-22.47,0-40.687,18.218-40.687,40.688c0,22.472,18.218,40.688,40.687,40.688C224.681,416.113,242.899,397.897,242.899,375.425z" fill="#a6d3ff" data-original="#a6d3ff" class=""/>
	</g>
	<path style="" d="M242.899,375.425c0,22.472-18.218,40.688-40.691,40.688c-22.47,0-40.687-18.216-40.687-40.688   H126.21c0.546,2.908,1.021,5.526,1.396,7.8c12.668,76.944,22.67,72.383,63.72,100.23c42.794,24.702,86.398,24.749,129.276-0.006   c41.05-27.841,51.049-23.279,63.717-100.224c0.375-2.274,0.851-4.893,1.396-7.8h-35.312c0,22.472-18.218,40.688-40.687,40.688   c-22.473,0-40.688-18.216-40.688-40.688L242.899,375.425L242.899,375.425z" fill="#fcc8a4" data-original="#fcc8a4"/>
</g>
<g xmlns="http://www.w3.org/2000/svg">
	<path style="" d="M372.623,204.084c0.197-0.335,0.405-0.665,0.6-1.002c5.862-10.154,10.385-21.002,13.441-32.24   c1.191-4.381-0.718-9.014-4.649-11.284l-20.501-11.837c0.475-4.094,0.714-8.222,0.714-12.339s-0.239-8.244-0.714-12.339   l20.501-11.836c3.932-2.27,5.841-6.903,4.649-11.284c-3.055-11.237-7.576-22.085-13.44-32.238   c-5.86-10.156-12.995-19.498-21.203-27.764c-3.199-3.221-8.165-3.883-12.097-1.614l-20.502,11.836   c-6.633-4.952-13.784-9.086-21.373-12.357V14.131c0-4.54-3.059-8.51-7.447-9.669c-22.529-5.948-46.746-5.948-69.281,0   c-4.39,1.159-7.448,5.129-7.448,9.669v23.655c-7.586,3.27-14.737,7.404-21.372,12.357l-20.504-11.835   c-3.934-2.27-8.898-1.607-12.097,1.615c-8.206,8.266-15.34,17.606-21.201,27.76c-5.86,10.149-10.382,20.997-13.439,32.242   c-1.191,4.38,0.718,9.014,4.649,11.284l20.501,11.834c-0.476,4.097-0.716,8.225-0.716,12.34c0,4.113,0.24,8.241,0.716,12.339   l-20.503,11.837c-3.933,2.27-5.841,6.905-4.649,11.286c3.06,11.247,7.583,22.095,13.441,32.238   c0.195,0.338,0.402,0.667,0.601,1.003c-13.641,16.592-23.882,36.118-30.468,58.169c-8.834,29.564,0.226,76.793,6.22,108.046   c0.486,2.537,0.941,4.91,1.354,7.113c0.003,0.013,0.005,0.026,0.007,0.039c0.52,2.766,0.973,5.257,1.324,7.396   c11.163,67.808,20.916,76.713,53.02,97.137c4.432,2.819,9.454,6.015,14.952,9.744c0.2,0.136,0.405,0.264,0.615,0.385   c22.847,13.189,46.264,19.878,69.604,19.884c0.01,0,0.019,0,0.028,0c23.353-0.001,46.784-6.692,69.645-19.89   c0.209-0.121,0.413-0.249,0.613-0.385c5.495-3.727,10.517-6.921,14.948-9.739c32.105-20.421,41.859-29.325,53.023-97.136   c0.634-3.851,1.585-8.809,2.685-14.55c5.994-31.251,15.054-78.48,6.22-108.044C396.504,240.203,386.263,220.677,372.623,204.084z    M359.409,365.425c-4.657-23.176-25.167-40.688-49.694-40.688c-24.526,0-45.036,17.512-49.693,40.688h-8.117   c-1.611-8.017-5.125-15.35-10.041-21.52c32.854-15.217,60.264-31.726,81.745-49.246c9.924,12.231,30.331,33.863,58.38,45.73   c-1.505,9.109-3.138,17.688-4.547,25.036H359.409z M340.403,375.45c-0.014,16.909-13.775,30.661-30.687,30.661   c-16.922,0-30.687-13.767-30.687-30.687c0-16.921,13.767-30.687,30.687-30.687c16.913,0,30.674,13.753,30.687,30.661   c0,0.009-0.001,0.017-0.001,0.026S340.403,375.442,340.403,375.45z M232.899,375.425c0,16.921-13.767,30.687-30.687,30.687   s-30.687-13.767-30.687-30.687c0-16.921,13.767-30.687,30.687-30.687S232.899,358.504,232.899,375.425z M166.308,161.638   c3.667-2.117,5.603-6.314,4.834-10.477c-0.959-5.191-1.445-10.499-1.445-15.779c0-5.28,0.486-10.589,1.445-15.781   c0.769-4.164-1.168-8.36-4.834-10.477L146.81,97.868c2.408-6.984,5.494-13.749,9.211-20.187c3.718-6.44,8.033-12.495,12.877-18.072   l19.511,11.265c3.671,2.121,8.281,1.694,11.502-1.063c8.102-6.933,17.285-12.243,27.295-15.782c3.996-1.413,6.667-5.19,6.667-9.428   V22.097c14.509-2.813,29.669-2.813,44.176,0v22.505c0,4.238,2.672,8.016,6.667,9.428c10.015,3.54,19.198,8.849,27.293,15.78   c3.222,2.757,7.83,3.185,11.504,1.064l19.513-11.265c4.844,5.577,9.157,11.63,12.876,18.073c3.72,6.441,6.805,13.205,9.213,20.186   l-19.498,11.257c-3.667,2.117-5.603,6.313-4.834,10.477c0.958,5.184,1.443,10.492,1.443,15.779c0,5.286-0.485,10.594-1.443,15.779   c-0.769,4.163,1.167,8.359,4.834,10.477l19.497,11.257c-2.408,6.982-5.494,13.747-9.213,20.189   c-3.717,6.44-8.031,12.495-12.875,18.071l-19.513-11.264c-3.671-2.119-8.279-1.694-11.501,1.062   c-8.107,6.936-17.291,12.247-27.294,15.782c-3.995,1.412-6.667,5.19-6.667,9.428v22.505c-14.507,2.813-29.671,2.813-44.178,0   v-22.505c0-4.237-2.671-8.015-6.666-9.428c-10.013-3.541-19.197-8.851-27.296-15.782c-3.223-2.756-7.829-3.182-11.502-1.063   l-19.512,11.264c-4.843-5.577-9.158-11.63-12.877-18.072c-3.716-6.435-6.802-13.2-9.212-20.187L166.308,161.638z M127.996,267.98   c5.233-17.525,13.036-33.195,23.245-46.747c2.733,3.341,5.622,6.549,8.659,9.609c3.198,3.222,8.167,3.885,12.097,1.615   l20.503-11.837c6.635,4.951,13.785,9.085,21.372,12.357v23.656c0,4.54,3.059,8.51,7.447,9.669   c11.265,2.974,22.921,4.482,34.642,4.482s23.377-1.508,34.642-4.482c4.39-1.159,7.447-5.129,7.447-9.669v-23.655   c7.582-3.269,14.732-7.403,21.37-12.357l20.503,11.837c3.932,2.268,8.897,1.607,12.097-1.614c3.038-3.06,5.928-6.269,8.661-9.61   c10.208,13.552,18.011,29.222,23.245,46.747c3.956,13.242,3.3,32.501,1.024,51.775c-31.243-15.273-51.186-44.804-51.4-45.124   c-1.602-2.422-4.179-4.029-7.06-4.401c-2.884-0.371-5.78,0.526-7.945,2.461c-22.853,20.426-54.535,39.64-94.171,57.157   c-6.7-3.272-14.222-5.113-22.166-5.113c-24.526,0-45.036,17.512-49.692,40.688h-18.036   C129.177,337.756,120.66,292.53,127.996,267.98z M330.43,465.11c-4.466,2.841-9.517,6.053-15.135,9.855   c-39.374,22.612-79.289,22.616-118.663,0.007c-5.617-3.804-10.67-7.018-15.138-9.859c-26.748-17.017-33.532-21.342-43.383-79.687   h14.406c4.656,23.176,25.166,40.688,49.692,40.688s45.036-17.512,49.693-40.688h8.117c4.657,23.176,25.167,40.688,49.693,40.688   c24.527,0,45.037-17.512,49.694-40.688h14.403C363.962,443.772,357.178,448.096,330.43,465.11z" fill="#000001" data-original="#000001" class=""/>
	<path style="" d="M89.051,158.323c5.506-0.426,9.624-5.236,9.197-10.742c-0.313-4.038-0.471-8.142-0.471-12.199   c0-42.254,16.454-81.977,46.331-111.853c3.905-3.905,3.905-10.237,0-14.143c-3.904-3.905-10.234-3.905-14.144,0   C96.31,43.04,77.775,87.786,77.775,135.383c0,4.57,0.179,9.193,0.531,13.743c0.405,5.244,4.786,9.229,9.959,9.229   C88.526,158.354,88.788,158.343,89.051,158.323z" fill="#000001" data-original="#000001" class=""/>
	<path style="" d="M410.277,46.288c-2.291-3.966-4.758-7.881-7.333-11.637c-3.124-4.555-9.348-5.716-13.904-2.593   c-4.555,3.123-5.716,9.347-2.593,13.903c2.286,3.333,4.477,6.809,6.51,10.329c21.126,36.595,26.737,79.223,15.801,120.034   c-1.43,5.335,1.736,10.818,7.07,12.249c0.867,0.232,1.738,0.343,2.595,0.343c4.415,0,8.456-2.946,9.653-7.414   C440.396,135.53,434.075,87.511,410.277,46.288z" fill="#000001" data-original="#000001" class=""/>
	<path style="" d="M103.025,175.795c-1.412-5.339-6.888-8.521-12.226-7.11c-5.339,1.413-8.522,6.886-7.109,12.226   l0.165,0.622c1.209,4.453,5.241,7.382,9.645,7.382c0.867,0,1.749-0.114,2.626-0.352c5.33-1.447,8.478-6.941,7.03-12.271   L103.025,175.795z" fill="#000001" data-original="#000001" class=""/>
	<path style="" d="M368.303,24.013c1.945,1.904,4.471,2.853,6.993,2.853c2.596,0,5.189-1.004,7.148-3.006   c3.862-3.947,3.794-10.279-0.153-14.143l-0.294-0.294c-3.885-3.928-10.217-3.96-14.144-0.077   c-3.926,3.884-3.96,10.216-0.076,14.143C367.951,23.663,368.128,23.841,368.303,24.013z" fill="#000001" data-original="#000001" class=""/>
	<path style="" d="M255.963,170.465c19.344,0,35.08-15.738,35.08-35.083c0-19.345-15.737-35.083-35.08-35.083   c-19.346,0-35.083,15.738-35.083,35.083S236.617,170.465,255.963,170.465z M255.963,120.3c8.314,0,15.08,6.766,15.08,15.083   c0,8.316-6.765,15.083-15.08,15.083c-8.316,0-15.083-6.766-15.083-15.083S247.646,120.3,255.963,120.3z" fill="#000001" data-original="#000001" class=""/>
</g>
<g xmlns="http://www.w3.org/2000/svg">
</g>
<g xmlns="http://www.w3.org/2000/svg">
</g>
<g xmlns="http://www.w3.org/2000/svg">
</g>
<g xmlns="http://www.w3.org/2000/svg">
</g>
<g xmlns="http://www.w3.org/2000/svg">
</g>
<g xmlns="http://www.w3.org/2000/svg">
</g>
<g xmlns="http://www.w3.org/2000/svg">
</g>
<g xmlns="http://www.w3.org/2000/svg">
</g>
<g xmlns="http://www.w3.org/2000/svg">
</g>
<g xmlns="http://www.w3.org/2000/svg">
</g>
<g xmlns="http://www.w3.org/2000/svg">
</g>
<g xmlns="http://www.w3.org/2000/svg">
</g>
<g xmlns="http://www.w3.org/2000/svg">
</g>
<g xmlns="http://www.w3.org/2000/svg">
</g>
<g xmlns="http://www.w3.org/2000/svg">
</g>
</g></svg>
