<?xml version="1.0"?>
<svg xmlns="http://www.w3.org/2000/svg" xmlns:xlink="http://www.w3.org/1999/xlink" xmlns:svgjs="http://svgjs.com/svgjs" version="1.1" width="512" height="512" x="0" y="0" viewBox="0 0 512 512" style="enable-background:new 0 0 512 512" xml:space="preserve" class=""><g>
<g xmlns="http://www.w3.org/2000/svg" id="XMLID_1362_">
	<g id="XMLID_2014_">
		<rect id="XMLID_3033_" x="224" y="10" style="" width="64" height="54" fill="#3f58df" data-original="#ffb954" class=""/>
		<rect id="XMLID_3006_" x="224" y="376" style="" width="64" height="126" fill="#3f58df" data-original="#ffb954" class=""/>
		<polygon id="XMLID_3005_" style="" points="224,376 160,376 96,502 160,502   " fill="#3f58df" data-original="#ffb954" class=""/>
		<polygon id="XMLID_3004_" style="" points="288,376 352,376 416,502 352,502   " fill="#3f58df" data-original="#ffb954" class=""/>
		<g id="XMLID_2017_">
			<path id="XMLID_2025_" style="" d="M135.387,144.56c-44.853,0-81.214,36.361-81.214,81.214     s36.361,81.214,81.214,81.214s81.214-36.361,81.214-81.214h-81.214V144.56z" fill="#a0e557" data-original="#a0e557" class=""/>
			<path id="XMLID_2024_" style="" d="M135.387,225.774V144.56c-22.426,0-42.73,9.09-57.427,23.787L135.387,225.774z" fill="#2e9de3" data-original="#2e9de3" class=""/>
			<path id="XMLID_2021_" style="" d="M135.387,128v97.774h97.774C233.16,171.775,189.386,128,135.387,128z" fill="#ff5d5d" data-original="#ff5d5d" class=""/>
		</g>
	</g>
	<rect id="XMLID_965_" x="278" y="257.926" style="" width="48" height="49.061" fill="#a0e557" data-original="#a0e557" class=""/>
	<rect id="XMLID_964_" x="326" y="224.826" style="" width="48" height="82.162" fill="#2e9de3" data-original="#2e9de3" class=""/>
	<rect id="XMLID_955_" x="374" y="198.251" style="" width="48" height="108.737" fill="#ff5d5d" data-original="#ff5d5d" class=""/>
	<g id="XMLID_177_">
		<path id="XMLID_214_" d="M44.173,225.773c0,50.296,40.918,91.214,91.214,91.214c46.917,0,85.667-35.606,90.663-81.214h7.11    c5.522,0,10-4.478,10-10C243.16,166.347,194.813,118,135.387,118c-5.522,0-10,4.478-10,10v7.11    C79.779,140.106,44.173,178.857,44.173,225.773z M125.387,201.631l-32.763-32.763c9.394-7.077,20.589-11.874,32.763-13.593    V201.631z M135.387,296.987c-39.268,0-71.214-31.946-71.214-71.214c0-16.035,5.331-30.846,14.309-42.763l49.834,49.834    c0.001,0.001,0.002,0.001,0.004,0.003c1.81,1.808,4.308,2.926,7.067,2.926h70.498    C201.006,270.321,171.259,296.987,135.387,296.987z M145.387,138.566c40.429,4.604,72.604,36.778,77.207,77.207h-77.207V138.566z" fill="#000000" data-original="#000000" style="" class=""/>
		<path id="XMLID_961_" d="M476.089,54H298V10c0-5.522-4.478-10-10-10h-64c-5.522,0-10,4.478-10,10v44h-58.671    c-5.522,0-10,4.478-10,10s4.478,10,10,10h320.76C484.862,74,492,81.138,492,89.911v260.178c0,8.773-7.138,15.911-15.911,15.911    H35.911C27.138,366,20,358.862,20,350.089V89.911C20,81.138,27.138,74,35.911,74h39.257c5.522,0,10-4.478,10-10s-4.478-10-10-10    H35.911C16.109,54,0,70.109,0,89.911v260.178C0,369.891,16.109,386,35.911,386h107.793L87.084,497.472    c-1.574,3.1-1.426,6.795,0.393,9.759C89.296,510.194,92.523,512,96,512h64c3.765,0,7.211-2.114,8.916-5.472L214,417.769V502    c0,5.522,4.478,10,10,10h64c5.522,0,10-4.478,10-10v-84.231l45.084,88.759c1.705,3.357,5.151,5.472,8.916,5.472h64    c3.477,0,6.704-1.806,8.523-4.77c1.818-2.964,1.967-6.659,0.393-9.759L368.295,386h107.793C495.891,386,512,369.891,512,350.089    V89.911C512,70.109,495.891,54,476.089,54z M234,54V20h44v34H234z M153.863,492h-41.567l53.841-106h41.567L153.863,492z M278,492    h-44V386h44V492z M399.704,492h-41.567l-53.841-106h41.567L399.704,492z" fill="#000000" data-original="#000000" style="" class=""/>
		<path id="XMLID_1000_" d="M115.17,74c2.64,0,5.21-1.07,7.08-2.931c1.859-1.859,2.93-4.439,2.93-7.069s-1.07-5.21-2.93-7.07    c-1.86-1.86-4.44-2.93-7.08-2.93c-2.63,0-5.21,1.069-7.061,2.93c-1.869,1.86-2.939,4.44-2.939,7.07s1.07,5.21,2.939,7.069    C109.96,72.93,112.54,74,115.17,74z" fill="#000000" data-original="#000000" style="" class=""/>
		<path id="XMLID_1001_" d="M256.127,185.066H320c5.522,0,10-4.478,10-10s-4.478-10-10-10h-63.873c-5.522,0-10,4.478-10,10    S250.604,185.066,256.127,185.066z" fill="#000000" data-original="#000000" style="" class=""/>
		<path id="XMLID_1025_" d="M256.127,137.066h114.871c5.522,0,10-4.478,10-10s-4.478-10-10-10H256.127c-5.522,0-10,4.478-10,10    S250.604,137.066,256.127,137.066z" fill="#000000" data-original="#000000" style="" class=""/>
		<path id="XMLID_1026_" d="M418.069,134.14c1.86-1.859,2.931-4.439,2.931-7.07c0-2.63-1.07-5.21-2.931-7.069    c-1.859-1.87-4.439-2.931-7.069-2.931s-5.21,1.061-7.07,2.931c-1.86,1.859-2.93,4.43-2.93,7.069c0,2.631,1.069,5.211,2.93,7.07    c1.86,1.86,4.44,2.93,7.07,2.93S416.21,136,418.069,134.14z" fill="#000000" data-original="#000000" style="" class=""/>
		<path id="XMLID_1036_" d="M256.127,316.987H462c5.522,0,10-4.478,10-10V176.313c0-5.522-4.478-10-10-10s-10,4.478-10,10v120.675    h-20v-98.736c0-5.522-4.478-10-10-10h-48c-5.522,0-10,4.478-10,10v16.575h-38c-5.522,0-10,4.478-10,10v23.101h-38    c-5.522,0-10,4.478-10,10v39.061h-11.873c-5.522,0-10,4.478-10,10S250.604,316.987,256.127,316.987z M384,208.251h28v88.736h-28    v-72.161V208.251z M336,234.826h28v62.161h-28v-39.061V234.826z M288,267.927h28v29.061h-28V267.927z" fill="#000000" data-original="#000000" style="" class=""/>
	</g>
</g>















</g></svg>
