<svg width="148" height="148" xmlns="http://www.w3.org/2000/svg" xmlns:xlink="http://www.w3.org/1999/xlink" overflow="hidden"><defs><clipPath id="clip0"><rect x="0" y="0" width="148" height="148"/></clipPath></defs><g clip-path="url(#clip0)"><rect x="0" y="0" width="148" height="148" fill="#FFFFFF" fill-opacity="0"/><path d="M23.5 74.5C23.5 46.3334 46.3334 23.5 74.5 23.5 102.666 23.5 125.5 46.3334 125.5 74.5 125.5 102.666 102.666 125.5 74.5 125.5 46.3334 125.5 23.5 102.666 23.5 74.5ZM37.0669 74.5C37.0669 95.1736 53.8263 111.933 74.5 111.933 95.1736 111.933 111.933 95.1736 111.933 74.5 111.933 53.8263 95.1736 37.0669 74.5 37.0669 53.8263 37.0669 37.0669 53.8263 37.0669 74.5Z" stroke="#2F528F" stroke-width="1.33484" stroke-miterlimit="8" fill="#4472C4" fill-rule="evenodd"/></g></svg>