<svg width="148" height="148" xmlns="http://www.w3.org/2000/svg" xmlns:xlink="http://www.w3.org/1999/xlink" overflow="hidden"><defs><clipPath id="clip0"><rect x="0" y="0" width="148" height="148"/></clipPath></defs><g clip-path="url(#clip0)"><rect x="0" y="0" width="148" height="148" fill="#FFFFFF" fill-opacity="0"/><path d="M37.5 74.4999C37.5 54.0654 54.0655 37.5 74.5 37.5 94.9346 37.5 111.5 54.0654 111.5 74.4999 111.5 94.9344 94.9346 111.5 74.5 111.5 54.0655 111.5 37.5 94.9344 37.5 74.4999ZM44.9629 74.4999C44.9629 90.8128 58.1871 104.037 74.5 104.037 90.8129 104.037 104.037 90.8128 104.037 74.4999 104.037 58.1871 90.8129 44.9629 74.5 44.9629 58.1871 44.9629 44.9629 58.1871 44.9629 74.4999Z" stroke="#2F528F" stroke-width="1.33484" stroke-miterlimit="8" fill="#4472C4" fill-rule="evenodd"/></g></svg>