<svg width="96" height="96" xmlns="http://www.w3.org/2000/svg" xmlns:xlink="http://www.w3.org/1999/xlink" overflow="hidden"><defs><clipPath id="clip0"><rect x="0" y="0" width="96" height="96"/></clipPath></defs><g clip-path="url(#clip0)"><path d="M0 0 96 0 96 96 0 96Z" fill="#FFFFFF" fill-rule="evenodd" fill-opacity="0"/><path d="M16.5001 48.5001C16.5001 30.8269 30.8269 16.5001 48.5001 16.5001 66.1732 16.5001 80.5 30.8269 80.5 48.5001 80.5 66.1732 66.1732 80.5 48.5001 80.5 30.8269 80.5 16.5001 66.1732 16.5001 48.5001ZM26.1992 48.5001C26.1992 60.8165 36.1836 70.8009 48.5001 70.8009 60.8165 70.8009 70.8009 60.8165 70.8009 48.5001 70.8009 36.1836 60.8165 26.1992 48.5001 26.1992 36.1836 26.1992 26.1992 36.1836 26.1992 48.5001Z" stroke="#2F528F" stroke-width="1.33333" stroke-miterlimit="8" fill="#4472C4" fill-rule="evenodd"/></g></svg>